<?xml version="1.0" encoding="utf-8" ?>
<svg xmlns="http://www.w3.org/2000/svg" xmlns:xlink="http://www.w3.org/1999/xlink" width="224" height="224">
	<path fill="#000001" transform="scale(0.35 0.35)" d="M308.67 79.9971C322.126 80.1457 335.344 79.9235 348.746 81.5198C453.86 94.0392 538.237 175.187 556.367 278.944C568.819 350.21 548.097 423.682 500.495 478.354C456.576 528.794 397.338 555.715 331.494 560.236C321.794 560.251 312.006 560.495 302.329 559.729C206.231 552.13 121.911 486.951 91.7371 395.256C41.7418 243.323 150.464 89.5197 308.67 79.9971ZM307.609 117.468C295.227 118.808 283.233 120.452 271.124 123.479C109.718 163.832 63.1276 373.416 193.866 477.344C228.573 504.934 272.333 521.532 316.802 522.136C322.031 522.207 327.284 521.945 332.508 522.148C337.674 521.166 342.984 520.944 348.197 520.22C460.738 504.601 540.034 395.224 518.62 283.513C499.259 182.518 411.235 112.035 307.609 117.468Z"/>
	<path fill="#183E4C" transform="scale(0.35 0.35)" d="M310.239 137.299C356.103 137.174 389.108 144.331 427.793 172.715C509.053 232.336 525.684 346.761 466.128 427.693C437.149 467.073 391.502 495.579 342.503 500.885C338.043 501.368 333.583 501.579 329.142 502.26C324.144 502.311 319.111 502.452 314.118 502.215C210.412 497.293 130.664 409.356 138.449 305.704C145.248 215.176 219.576 142.709 310.239 137.299ZM208.608 235.314L208.608 403.763L307.609 403.763C308.001 402.941 307.605 375.731 307.609 372.241L244.073 372.241L244.073 235.314C232.259 235.311 220.417 235.126 208.608 235.314ZM327.477 235.314L327.477 403.763L362.64 403.763L362.63 347.455C362.631 333.172 358.696 314.168 372.371 305.446C367.625 299.927 362.221 292.272 362.64 284.707L362.64 235.314L327.477 235.314Z"/>
	<path fill="#F8A85F" transform="scale(0.35 0.35)" d="M362.64 284.707C387.452 264.052 425.427 275.541 432.154 308.094C434.288 318.422 433.341 334.372 433.339 345.189L433.329 403.763C421.309 403.774 409.28 403.887 397.26 403.763L397.276 346.099C397.277 338.456 398.024 324.433 396.682 317.275C394.516 305.716 382.43 300.478 372.371 305.446C367.625 299.927 362.221 292.272 362.64 284.707Z"/>
</svg>
